<svg width="26" height="22" viewBox="0 0 26 22" fill="none" xmlns="http://www.w3.org/2000/svg">
<path d="M7.18667 4.77799V5.52799C7.42716 5.52799 7.65305 5.41268 7.79411 5.21791L7.18667 4.77799ZM8.79919 2.55141L8.19176 2.11149V2.11149L8.79919 2.55141ZM17.0408 2.55141L17.6483 2.11149V2.11149L17.0408 2.55141ZM18.6533 4.77799L18.0459 5.21791C18.187 5.41268 18.4129 5.52799 18.6533 5.52799V4.77799ZM15.61 12.6947C15.61 13.9721 14.4653 15.1113 12.92 15.1113V16.6113C15.1744 16.6113 17.11 14.915 17.11 12.6947H15.61ZM12.92 15.1113C11.3747 15.1113 10.23 13.9721 10.23 12.6947H8.73001C8.73001 14.915 10.6656 16.6113 12.92 16.6113V15.1113ZM10.23 12.6947C10.23 11.4172 11.3747 10.278 12.92 10.278V8.778C10.6656 8.778 8.73001 10.4743 8.73001 12.6947H10.23ZM12.92 10.278C14.4653 10.278 15.61 11.4172 15.61 12.6947H17.11C17.11 10.4743 15.1744 8.778 12.92 8.778V10.278ZM7.79411 5.21791L9.40663 2.99132L8.19176 2.11149L6.57924 4.33808L7.79411 5.21791ZM10.7074 2.36133H15.1327V0.861328H10.7074V2.36133ZM16.4334 2.99132L18.0459 5.21791L19.2608 4.33808L17.6483 2.11149L16.4334 2.99132ZM15.1327 2.36133C15.6752 2.36133 16.1584 2.61155 16.4334 2.99132L17.6483 2.11149C17.0726 1.31664 16.1237 0.861328 15.1327 0.861328V2.36133ZM9.40663 2.99132C9.68166 2.61155 10.1648 2.36133 10.7074 2.36133V0.861328C9.71631 0.861328 8.7674 1.31664 8.19176 2.11149L9.40663 2.99132ZM23.6367 9.00022V16.3891H25.1367V9.00022H23.6367ZM19.8 19.8613H6.04001V21.3613H19.8V19.8613ZM2.20334 16.3891V9.00022H0.703339V16.3891H2.20334ZM6.04001 19.8613C3.8614 19.8613 2.20334 18.2495 2.20334 16.3891H0.703339C0.703339 19.1924 3.15231 21.3613 6.04001 21.3613V19.8613ZM23.6367 16.3891C23.6367 18.2495 21.9786 19.8613 19.8 19.8613V21.3613C22.6877 21.3613 25.1367 19.1924 25.1367 16.3891H23.6367ZM19.8 5.52799C21.9786 5.52799 23.6367 7.13981 23.6367 9.00022H25.1367C25.1367 6.19688 22.6877 4.02799 19.8 4.02799V5.52799ZM6.04001 4.02799C3.15231 4.02799 0.703339 6.19688 0.703339 9.00022H2.20334C2.20334 7.13981 3.8614 5.52799 6.04001 5.52799V4.02799ZM6.04001 5.52799H7.18667V4.02799H6.04001V5.52799ZM19.8 4.02799H18.6533V5.52799H19.8V4.02799Z" fill="#000E08"/>
</svg>
