<svg width="21" height="21" viewBox="0 0 21 21" fill="none" xmlns="http://www.w3.org/2000/svg">
<path d="M16.0598 1.62817C16.973 0.75207 18.4298 0.770769 19.3201 1.67001C20.2077 2.56665 20.1999 4.00354 19.3026 4.89034L13.1991 10.9222C12.8498 11.2674 12.4202 11.5224 11.9481 11.6649L9.4373 12.4224C9.05619 12.5374 8.64202 12.435 8.36024 12.1562C8.05438 11.8534 7.96083 11.3992 8.12258 11.0022L9.06031 8.70088C9.21783 8.31428 9.45545 7.96466 9.75785 7.67453L16.0598 1.62817Z" fill="black"/>
<path d="M11.1038 2.85742H5C2.79086 2.85742 1 4.64828 1 6.85742V16.0003C1 18.2094 2.79086 20.0003 5 20.0003H14.3208C16.5299 20.0003 18.3208 18.2094 18.3208 16.0003V9.28599" stroke="black" stroke-width="1.4" stroke-linecap="round"/>
</svg>
