<svg width="46" height="46" viewBox="0 0 46 46" fill="none" xmlns="http://www.w3.org/2000/svg">
<rect x="0.5" y="0.5" width="45" height="45" rx="16.5" fill="white"/>
<rect x="0.5" y="0.5" width="45" height="45" rx="16.5" stroke="#E2E2E2"/>
<path d="M31.5 23C31.5 23.3758 31.3559 23.7391 31.0864 24.0022C30.8233 24.2716 30.4598 24.4219 30.0839 24.4219H24.4193V30.0844C24.4193 30.4602 24.2689 30.8235 23.9994 31.0866C23.7363 31.3497 23.3791 31.5 23.0031 31.5C22.6272 31.5 22.2637 31.3497 22.0006 31.0866C21.7311 30.8235 21.5807 30.4602 21.5807 30.0844V24.4219H15.9161C15.5402 24.4219 15.1767 24.2716 14.9136 24.0022C14.6504 23.7391 14.5 23.3758 14.5 23C14.5 22.6242 14.6504 22.2671 14.9136 21.9978C15.1767 21.7347 15.5402 21.5844 15.9161 21.5844H21.5807V15.9219C21.5807 15.5461 21.7311 15.1828 22.0006 14.9197C22.2637 14.6503 22.6272 14.5 23.0031 14.5C23.3791 14.5 23.7363 14.6503 23.9994 14.9197C24.2689 15.1828 24.4193 15.5461 24.4193 15.9219V21.5844H30.0839C30.4598 21.5844 30.8233 21.7347 31.0864 21.9978C31.3559 22.2671 31.5 22.6242 31.5 23Z" fill="#323C64"/>
</svg>
