<svg width="26" height="26" viewBox="0 0 26 26" fill="none" xmlns="http://www.w3.org/2000/svg">
<rect width="26" height="26" rx="10" fill="#7ACDD6"/>
<path d="M18 13C18 13.2211 17.9152 13.4348 17.7567 13.5895C17.6019 13.748 17.3881 13.8364 17.167 13.8364H13.8349V17.1673C13.8349 17.3884 13.7464 17.6021 13.5879 17.7568C13.4331 17.9116 13.223 18 13.0018 18C12.7807 18 12.5669 17.9116 12.4121 17.7568C12.2536 17.6021 12.1651 17.3884 12.1651 17.1673V13.8364H8.83303C8.61187 13.8364 8.39808 13.748 8.24327 13.5895C8.08846 13.4348 8 13.2211 8 13C8 12.7789 8.08846 12.5689 8.24327 12.4105C8.39808 12.2557 8.61187 12.1673 8.83303 12.1673H12.1651V8.8364C12.1651 8.61533 12.2536 8.40162 12.4121 8.24687C12.5669 8.08843 12.7807 8 13.0018 8C13.223 8 13.4331 8.08843 13.5879 8.24687C13.7464 8.40162 13.8349 8.61533 13.8349 8.8364V12.1673H17.167C17.3881 12.1673 17.6019 12.2557 17.7567 12.4105C17.9152 12.5689 18 12.7789 18 13Z" fill="white"/>
</svg>
