<svg width="53" height="53" viewBox="0 0 53 53" fill="none" xmlns="http://www.w3.org/2000/svg">
<circle cx="26.5" cy="26.5" r="26.5" fill="#7ACDD6"/>
<path d="M14 25.5C13.1716 25.5 12.5 26.1716 12.5 27C12.5 27.8284 13.1716 28.5 14 28.5L14 25.5ZM39.0607 28.0607C39.6464 27.4749 39.6464 26.5251 39.0607 25.9393L29.5147 16.3934C28.9289 15.8076 27.9792 15.8076 27.3934 16.3934C26.8076 16.9792 26.8076 17.9289 27.3934 18.5147L35.8787 27L27.3934 35.4853C26.8076 36.0711 26.8076 37.0208 27.3934 37.6066C27.9792 38.1924 28.9289 38.1924 29.5147 37.6066L39.0607 28.0607ZM14 28.5L38 28.5L38 25.5L14 25.5L14 28.5Z" fill="white"/>
</svg>
