<svg width="53" height="53" viewBox="0 0 53 53" fill="none" xmlns="http://www.w3.org/2000/svg">
<circle cx="26.5" cy="26.5" r="26" fill="white" stroke="#7ACDD6"/>
<path d="M38.9784 28.8123C39.8068 28.8231 40.487 28.1603 40.4978 27.332C40.5086 26.5036 39.8458 25.8234 39.0175 25.8126L38.9784 28.8123ZM13.9532 25.9256C13.3598 26.5037 13.3475 27.4534 13.9256 28.0467L23.3464 37.7161C23.9245 38.3095 24.8742 38.3219 25.4676 37.7438C26.0609 37.1657 26.0733 36.216 25.4952 35.6226L17.1211 27.0276L25.7161 18.6535C26.3095 18.0754 26.3219 17.1257 25.7438 16.5324C25.1656 15.939 24.216 15.9266 23.6226 16.5047L13.9532 25.9256ZM39.0175 25.8126L15.0195 25.5001L14.9804 28.4998L38.9784 28.8123L39.0175 25.8126Z" fill="#7ACDD6"/>
</svg>
