<svg width="24" height="27" viewBox="0 0 24 27" fill="none" xmlns="http://www.w3.org/2000/svg">
<path fill-rule="evenodd" clip-rule="evenodd" d="M12 6.7998C14.4546 6.7998 16.4444 8.94884 16.4444 11.5998C16.4444 14.2508 14.4546 16.3998 12 16.3998C9.54539 16.3998 7.55554 14.2508 7.55554 11.5998C7.55554 8.94884 9.54539 6.7998 12 6.7998Z" stroke="#7ACDD6" stroke-width="1.5"/>
<path fill-rule="evenodd" clip-rule="evenodd" d="M12 2C17.5228 2 22 6.78287 22 12.6828C22 16.587 18.9752 20.715 13.0536 25.2118L12.6349 25.525C12.2584 25.8067 11.7413 25.8072 11.3642 25.5261V25.5261C5.16713 20.9071 2 16.6778 2 12.6828C2 6.78287 6.47715 2 12 2Z" stroke="black" stroke-width="2.5"/>
</svg>
