<svg width="7" height="7" viewBox="0 0 7 7" fill="none" xmlns="http://www.w3.org/2000/svg">
<path d="M7 3.5C7 3.65475 6.94066 3.80435 6.82971 3.91268C6.72134 4.02358 6.57169 4.08548 6.41688 4.08548H4.08441V6.4171C4.08441 6.57185 4.02248 6.72145 3.91154 6.82977C3.80317 6.9381 3.6561 7 3.50129 7C3.34648 7 3.19683 6.9381 3.08846 6.82977C2.97752 6.72145 2.91559 6.57185 2.91559 6.4171V4.08548H0.583118C0.428308 4.08548 0.278658 4.02358 0.170291 3.91268C0.0619241 3.80435 0 3.65475 0 3.5C0 3.34525 0.0619241 3.19823 0.170291 3.08733C0.278658 2.979 0.428308 2.9171 0.583118 2.9171H2.91559V0.585483C2.91559 0.43073 2.97752 0.281135 3.08846 0.172808C3.19683 0.0619013 3.34648 0 3.50129 0C3.6561 0 3.80317 0.0619013 3.91154 0.172808C4.02248 0.281135 4.08441 0.43073 4.08441 0.585483V2.9171H6.41688C6.57169 2.9171 6.72134 2.979 6.82971 3.08733C6.94066 3.19823 7 3.34525 7 3.5Z" fill="white"/>
</svg>
