<svg width="18" height="18" viewBox="0 0 18 18" fill="none" xmlns="http://www.w3.org/2000/svg">
<path d="M17.5 9C17.5 9.37583 17.3559 9.73913 17.0864 10.0022C16.8233 10.2716 16.4598 10.4219 16.0839 10.4219H10.4193V16.0844C10.4193 16.4602 10.2689 16.8235 9.99945 17.0866C9.73627 17.3497 9.3791 17.5 9.00313 17.5C8.62716 17.5 8.26373 17.3497 8.00055 17.0866C7.73111 16.8235 7.58072 16.4602 7.58072 16.0844V10.4219H1.91614C1.54018 10.4219 1.17674 10.2716 0.913564 10.0022C0.650387 9.73913 0.5 9.37583 0.5 9C0.5 8.62417 0.650387 8.26713 0.913564 7.99779C1.17674 7.73471 1.54018 7.58438 1.91614 7.58438H7.58072V1.92189C7.58072 1.54606 7.73111 1.18276 8.00055 0.919676C8.26373 0.650332 8.62716 0.5 9.00313 0.5C9.3791 0.5 9.73627 0.650332 9.99945 0.919676C10.2689 1.18276 10.4193 1.54606 10.4193 1.92189V7.58438H16.0839C16.4598 7.58438 16.8233 7.73471 17.0864 7.99779C17.3559 8.26713 17.5 8.62417 17.5 9Z" fill="#323C64"/>
</svg>
