<svg width="46" height="46" viewBox="0 0 46 46" fill="none" xmlns="http://www.w3.org/2000/svg">
<rect x="0.5" y="0.5" width="45" height="45" rx="16.5" fill="white"/>
<rect x="0.5" y="0.5" width="45" height="45" rx="16.5" stroke="#E2E2E2"/>
<path d="M31.5 22.9969C31.5 23.3728 31.3559 23.7361 31.0864 23.9991C30.8233 24.2685 30.4598 24.4188 30.0839 24.4188H24.4193H21.5807H15.9161C15.5402 24.4188 15.1767 24.2685 14.9136 23.9991C14.6504 23.7361 14.5 23.3728 14.5 22.9969C14.5 22.6211 14.6504 22.2641 14.9136 21.9947C15.1767 21.7316 15.5402 21.5813 15.9161 21.5813H21.5807H24.4193H30.0839C30.4598 21.5813 30.8233 21.7316 31.0864 21.9947C31.3559 22.2641 31.5 22.6211 31.5 22.9969Z" fill="#C4C2CF"/>
</svg>
