<svg width="21" height="23" viewBox="0 0 21 23" fill="none" xmlns="http://www.w3.org/2000/svg">
<path d="M8.9896 1.5L2.99998 1.50004C1.89541 1.50005 0.999991 2.39548 0.999991 3.50004L0.999991 19.5C0.999991 20.6046 1.89542 21.5 2.99999 21.5H9.6554" stroke="black" stroke-width="1.5" stroke-linecap="round"/>
<path d="M5.00782 10.912C5.00602 11.5617 5.60074 12.0897 6.33617 12.0913L16.4377 12.1131L14.7116 13.6305C14.2705 14.0183 14.2011 14.6113 14.5045 15.0636L14.5965 15.1832L14.707 15.2942C15.1858 15.7194 15.941 15.7536 16.4644 15.3959L16.5901 15.2983L20.5947 11.7775L20.6499 11.7259L20.7236 11.6463L20.8194 11.5156L20.8909 11.3831L20.9384 11.2593L20.9774 11.0854L20.987 10.9465L20.9835 10.858L20.9607 10.7103L20.9218 10.5791L20.8636 10.4483L20.7943 10.3335L20.6965 10.21L20.5993 10.1137L16.6142 6.57572C16.0955 6.11516 15.2524 6.11334 14.7311 6.57166C14.2499 6.99472 14.2111 7.66197 14.616 8.12436L14.7265 8.23543L16.4415 9.76019L6.34267 9.73839C5.60725 9.7368 5.00962 10.2622 5.00782 10.912Z" fill="black"/>
</svg>
